name rise34.3697peak60.0498fall86.3158.mot
datacolumns 19
datarows 21
range 22.89492000000000 22.92824400000000
endheader
time	ground_force1_vx	ground_force1_vy	ground_force1_vz	ground_force1_px	ground_force1_py	ground_force1_pz	ground_force2_vx	ground_force2_vy	ground_force2_vz	ground_force2_px	ground_force2_py	ground_force2_pz	ground_torque1_x	ground_torque1_y	ground_torque1_z	ground_torque2_x	ground_torque2_y	ground_torque2_z	
22.89492000000000	56.00573500000000	751.55816400000003	63.26033500000000	0.38006700000000	0.00000000000000	0.13803800000000	0.00000000000000	0.00000000000000	0.00000000000000	0.00000000000000	0.00000000000000	0.00000000000000	0.00000000000000	31.57163500000000	0.00000000000000	0.00000000000000	0.00000000000000	0.00000000000000	
22.89657800000000	55.36541100000000	754.13814100000002	63.44620700000000	0.37831400000000	0.00000000000000	0.13810900000000	0.00000000000000	0.00000000000000	0.00000000000000	0.00000000000000	0.00000000000000	0.00000000000000	0.00000000000000	31.66630900000000	0.00000000000000	0.00000000000000	0.00000000000000	0.00000000000000	
22.89825600000000	54.73032700000000	756.63766199999998	63.63063800000000	0.37658500000000	0.00000000000000	0.13818000000000	0.00000000000000	0.00000000000000	0.00000000000000	0.00000000000000	0.00000000000000	0.00000000000000	0.00000000000000	31.76019100000000	0.00000000000000	0.00000000000000	0.00000000000000	0.00000000000000	
22.89991200000000	54.10060300000000	759.05377299999998	63.81294300000000	0.37488100000000	0.00000000000000	0.13825100000000	0.00000000000000	0.00000000000000	0.00000000000000	0.00000000000000	0.00000000000000	0.00000000000000	0.00000000000000	31.85294600000000	0.00000000000000	0.00000000000000	0.00000000000000	0.00000000000000	
22.90157900000000	53.47630600000000	761.38355100000001	63.99238500000000	0.37320300000000	0.00000000000000	0.13832100000000	0.00000000000000	0.00000000000000	0.00000000000000	0.00000000000000	0.00000000000000	0.00000000000000	0.00000000000000	31.94421000000000	0.00000000000000	0.00000000000000	0.00000000000000	0.00000000000000	
22.90324400000000	52.85745500000000	763.62412200000006	64.16818499999999	0.37155400000000	0.00000000000000	0.13839100000000	0.00000000000000	0.00000000000000	0.00000000000000	0.00000000000000	0.00000000000000	0.00000000000000	0.00000000000000	32.03359100000000	0.00000000000000	0.00000000000000	0.00000000000000	0.00000000000000	
22.90492600000000	52.24402300000000	765.77268300000003	64.33952499999999	0.36993300000000	0.00000000000000	0.13846000000000	0.00000000000000	0.00000000000000	0.00000000000000	0.00000000000000	0.00000000000000	0.00000000000000	0.00000000000000	32.12067500000000	0.00000000000000	0.00000000000000	0.00000000000000	0.00000000000000	
22.90658300000000	51.63593900000000	767.82651499999997	64.50555600000000	0.36834200000000	0.00000000000000	0.13852800000000	0.00000000000000	0.00000000000000	0.00000000000000	0.00000000000000	0.00000000000000	0.00000000000000	0.00000000000000	32.20502900000000	0.00000000000000	0.00000000000000	0.00000000000000	0.00000000000000	
22.90824800000000	51.03310000000000	769.78300700000000	64.66540800000000	0.36678200000000	0.00000000000000	0.13859500000000	0.00000000000000	0.00000000000000	0.00000000000000	0.00000000000000	0.00000000000000	0.00000000000000	0.00000000000000	32.28620400000000	0.00000000000000	0.00000000000000	0.00000000000000	0.00000000000000	
22.90992100000000	50.43536700000000	771.63967000000002	64.81819200000000	0.36525300000000	0.00000000000000	0.13866100000000	0.00000000000000	0.00000000000000	0.00000000000000	0.00000000000000	0.00000000000000	0.00000000000000	0.00000000000000	32.36373900000000	0.00000000000000	0.00000000000000	0.00000000000000	0.00000000000000	
22.91157900000000	49.84257300000000	773.39415399999996	64.96300900000000	0.36375700000000	0.00000000000000	0.13872500000000	0.00000000000000	0.00000000000000	0.00000000000000	0.00000000000000	0.00000000000000	0.00000000000000	0.00000000000000	32.43716700000000	0.00000000000000	0.00000000000000	0.00000000000000	0.00000000000000	
22.91324500000000	49.25452900000000	775.04426400000000	65.09895700000000	0.36229300000000	0.00000000000000	0.13878800000000	0.00000000000000	0.00000000000000	0.00000000000000	0.00000000000000	0.00000000000000	0.00000000000000	0.00000000000000	32.50601400000000	0.00000000000000	0.00000000000000	0.00000000000000	0.00000000000000	
22.91492300000000	48.67102300000000	776.58797100000004	65.22513900000000	0.36086300000000	0.00000000000000	0.13884900000000	0.00000000000000	0.00000000000000	0.00000000000000	0.00000000000000	0.00000000000000	0.00000000000000	0.00000000000000	32.56980700000000	0.00000000000000	0.00000000000000	0.00000000000000	0.00000000000000	
22.91657600000000	48.09182900000000	778.02343399999995	65.34066799999999	0.35946700000000	0.00000000000000	0.13890800000000	0.00000000000000	0.00000000000000	0.00000000000000	0.00000000000000	0.00000000000000	0.00000000000000	0.00000000000000	32.62807600000000	0.00000000000000	0.00000000000000	0.00000000000000	0.00000000000000	
22.91824400000000	47.51670900000000	779.34900300000004	65.44467400000001	0.35810400000000	0.00000000000000	0.13896400000000	0.00000000000000	0.00000000000000	0.00000000000000	0.00000000000000	0.00000000000000	0.00000000000000	0.00000000000000	32.68035500000000	0.00000000000000	0.00000000000000	0.00000000000000	0.00000000000000	
22.91991000000000	46.94541500000000	780.56323599999996	65.53631100000000	0.35677500000000	0.00000000000000	0.13901900000000	0.00000000000000	0.00000000000000	0.00000000000000	0.00000000000000	0.00000000000000	0.00000000000000	0.00000000000000	32.72619100000000	0.00000000000000	0.00000000000000	0.00000000000000	0.00000000000000	
22.92157800000000	46.37769800000000	781.66490799999997	65.61476399999999	0.35547900000000	0.00000000000000	0.13907100000000	0.00000000000000	0.00000000000000	0.00000000000000	0.00000000000000	0.00000000000000	0.00000000000000	0.00000000000000	32.76514100000000	0.00000000000000	0.00000000000000	0.00000000000000	0.00000000000000	
22.92324700000000	45.81330500000000	782.65301899999997	65.67925099999999	0.35421800000000	0.00000000000000	0.13912100000000	0.00000000000000	0.00000000000000	0.00000000000000	0.00000000000000	0.00000000000000	0.00000000000000	0.00000000000000	32.79677800000000	0.00000000000000	0.00000000000000	0.00000000000000	0.00000000000000	
22.92491800000000	45.25198700000000	783.52680299999997	65.72903400000000	0.35298900000000	0.00000000000000	0.13916800000000	0.00000000000000	0.00000000000000	0.00000000000000	0.00000000000000	0.00000000000000	0.00000000000000	0.00000000000000	32.82069600000000	0.00000000000000	0.00000000000000	0.00000000000000	0.00000000000000	
22.92657800000000	44.69350000000000	784.28573200000005	65.76342200000001	0.35179400000000	0.00000000000000	0.13921200000000	0.00000000000000	0.00000000000000	0.00000000000000	0.00000000000000	0.00000000000000	0.00000000000000	0.00000000000000	32.83650700000000	0.00000000000000	0.00000000000000	0.00000000000000	0.00000000000000	
22.92824400000000	44.13760900000000	784.92952600000001	65.78177400000000	0.35063200000000	0.00000000000000	0.13925400000000	0.00000000000000	0.00000000000000	0.00000000000000	0.00000000000000	0.00000000000000	0.00000000000000	0.00000000000000	32.84385000000000	0.00000000000000	0.00000000000000	0.00000000000000	0.00000000000000	
